<?xml version="1.0" encoding="utf-8"?>
<!-- Generator: Adobe Illustrator 19.0.0, SVG Export Plug-In . SVG Version: 6.00 Build 0)  -->
<svg version="1.1"
	 id="svg2" sodipodi:docname="google-play-badge.svg" inkscape:version="0.91 r13725" xmlns:inkscape="http://www.inkscape.org/namespaces/inkscape" xmlns:dc="http://purl.org/dc/elements/1.1/" xmlns:svg="http://www.w3.org/2000/svg" xmlns:sodipodi="http://sodipodi.sourceforge.net/DTD/sodipodi-0.dtd" xmlns:rdf="http://www.w3.org/1999/02/22-rdf-syntax-ns#" xmlns:cc="http://creativecommons.org/ns#"
	 xmlns="http://www.w3.org/2000/svg" xmlns:xlink="http://www.w3.org/1999/xlink" x="0px" y="0px" viewBox="-405.7 255.9 136.3 40"
	 style="enable-background:new -405.7 255.9 136.3 40;" xml:space="preserve">
<style type="text/css">
	.st0{display:none;fill:#A6A6A6;}
	.st1{display:none;}
	.st2{display:inline;fill:#FFFFFF;stroke:#FFFFFF;stroke-width:0.16;stroke-miterlimit:10;}
	.st3{fill:#FFFFFF;}
	.st4{fill:#00D2FF;}
	.st5{fill:#FFBD00;}
	.st6{fill:#FF3A44;}
	.st7{fill:#15CF74;}
</style>
<sodipodi:namedview  inkscape:pageopacity="0" inkscape:window-y="-8" inkscape:pageshadow="2" inkscape:window-maximized="1" inkscape:current-layer="g10" inkscape:window-height="705" inkscape:window-width="1366" inkscape:window-x="-8" pagecolor="#ffffff" inkscape:cy="29.61582" inkscape:cx="93.965168" showgrid="false" id="namedview4" guidetolerance="10" gridtolerance="10" bordercolor="#666666" inkscape:zoom="7.6276974" objecttolerance="10" borderopacity="1">
	</sodipodi:namedview>
<path id="path14" inkscape:connector-curvature="0" d="M-274.4,295.9h-126.2c-2.8,0-5-2.2-5-5v-29.9c0-2.7,2.3-5,5-5h126.2
	c2.8,0,5,2.2,5,5v29.9C-269.3,293.6-271.6,295.9-274.4,295.9z"/>
<path id="path16" inkscape:connector-curvature="0" class="st0" d="M-691.5,523.8c2.3,0,4.2,1.9,4.2,4.2v29.7c0,2.3-1.9,4.2-4.2,4.2
	h-125.3c-2.3,0-4.2-1.9-4.2-4.2V528c0-2.3,1.9-4.2,4.2-4.2H-691.5 M-691.5,523h-125.3c-2.8,0-5,2.2-5,5v29.7c0,2.7,2.3,5,5,5h125.3
	c2.8,0,5-2.2,5-5V528C-686.4,525.2-688.7,523-691.5,523z"/>
<g id="g18" transform="matrix(1,0,0,-1,0,48)" class="st1">
	<path id="path20" inkscape:connector-curvature="0" class="st2" d="M-774.2-485.1c0-0.8-0.3-1.5-0.7-2c-0.6-0.6-1.3-0.9-2.2-0.9
		s-1.6,0.3-2.2,0.9c-0.6,0.6-0.9,1.3-0.9,2.2s0.3,1.6,0.9,2.2c0.6,0.6,1.3,0.9,2.2,0.9c0.4,0,0.8-0.1,1.2-0.3
		c0.4-0.2,0.7-0.4,0.9-0.7l-0.5-0.5c-0.4,0.5-0.9,0.7-1.7,0.7c-0.6,0-1.2-0.2-1.6-0.7c-0.5-0.4-0.7-1-0.7-1.7s0.2-1.3,0.7-1.7
		c0.5-0.4,1-0.7,1.6-0.7c0.7,0,1.2,0.2,1.7,0.7c0.3,0.3,0.5,0.7,0.5,1.2h-2.2v0.7h2.9C-774.3-484.8-774.2-485-774.2-485.1z"/>
</g>
<g id="g22" transform="matrix(1,0,0,-1,0,48)" class="st1">
	<path id="path24" inkscape:connector-curvature="0" class="st2" d="M-769.6-482.7h-2.7v-1.9h2.5v-0.7h-2.5v-1.9h2.7v-0.7h-3.5v5.9
		h3.5V-482.7z"/>
</g>
<g id="g26" transform="matrix(1,0,0,-1,0,48)" class="st1">
	<path id="path28" inkscape:connector-curvature="0" class="st2" d="M-766.4-487.9h-0.8v5.2h-1.7v0.7h4.1v-0.7h-1.7L-766.4-487.9
		L-766.4-487.9z"/>
</g>
<g id="g30" transform="matrix(1,0,0,-1,0,48)" class="st1">
	<path id="path32" inkscape:connector-curvature="0" class="st2" d="M-761.7-487.9v5.9h0.8v-5.9H-761.7z"/>
</g>
<g id="g34" transform="matrix(1,0,0,-1,0,48)" class="st1">
	<path id="path36" inkscape:connector-curvature="0" class="st2" d="M-757.5-487.9h-0.8v5.2h-1.7v0.7h4.1v-0.7h-1.7v-5.2H-757.5z"/>
</g>
<g id="g38" transform="matrix(1,0,0,-1,0,48)" class="st1">
	<path id="path40" inkscape:connector-curvature="0" class="st2" d="M-748-487.1c-0.6-0.6-1.3-0.9-2.2-0.9s-1.6,0.3-2.2,0.9
		c-0.6,0.6-0.9,1.3-0.9,2.2s0.3,1.6,0.9,2.2c0.6,0.6,1.3,0.9,2.2,0.9c0.9,0,1.6-0.3,2.2-0.9c0.6-0.6,0.9-1.3,0.9-2.2
		S-747.4-486.5-748-487.1z M-751.8-486.6c0.4-0.4,1-0.7,1.6-0.7c0.6,0,1.2,0.2,1.6,0.7c0.4,0.4,0.7,1,0.7,1.7s-0.2,1.3-0.7,1.7
		c-0.4,0.4-1,0.7-1.6,0.7c-0.6,0-1.2-0.2-1.6-0.7c-0.4-0.4-0.7-1-0.7-1.7S-752.3-486.2-751.8-486.6z"/>
</g>
<g id="g42" transform="matrix(1,0,0,-1,0,48)" class="st1">
	<path id="path44" inkscape:connector-curvature="0" class="st2" d="M-746-487.9v5.9h0.9l2.9-4.6l0,0v1.1v3.5h0.8v-5.9h-0.8
		l-3.1,4.8l0,0v-1.1v-3.7H-746z"/>
</g>
<path id="path46" inkscape:connector-curvature="0" class="st3" d="M-336.9,277.6c-2.4,0-4.3,1.8-4.3,4.2s1.9,4.2,4.3,4.2
	c2.4,0,4.3-1.8,4.3-4.2C-332.6,279.4-334.5,277.6-336.9,277.6z M-336.9,284.5c-1.3,0-2.4-1.1-2.4-2.6c0-1.5,1.1-2.6,2.4-2.6
	c1.3,0,2.4,1,2.4,2.6S-335.6,284.5-336.9,284.5z M-346.3,277.6c-2.4,0-4.3,1.8-4.3,4.2s1.9,4.2,4.3,4.2s4.3-1.8,4.3-4.2
	C-341.9,279.4-343.8,277.6-346.3,277.6z M-346.3,284.5c-1.3,0-2.4-1.1-2.4-2.6c0-1.5,1.1-2.6,2.4-2.6s2.4,1,2.4,2.6
	S-345,284.5-346.3,284.5z M-357.4,278.9v1.8h4.3c-0.1,1-0.5,1.7-1,2.2c-0.6,0.6-1.6,1.3-3.3,1.3c-2.7,0-4.7-2.1-4.7-4.8
	s2.1-4.8,4.7-4.8c1.4,0,2.5,0.6,3.3,1.3l1.3-1.3c-1.1-1-2.5-1.8-4.5-1.8c-3.7,0-6.8,2.9-6.8,6.5c0,3.6,3.1,6.5,6.8,6.5
	c2,0,3.5-0.6,4.6-1.8c1.2-1.2,1.6-2.8,1.6-4.2c0-0.4,0-0.8-0.1-1.1h-6.2V278.9z M-311.7,280.3c-0.4-0.9-1.4-2.7-3.7-2.7
	c-2.2,0-4,1.7-4,4.2c0,2.4,1.8,4.2,4.2,4.2c2,0,3.1-1.2,3.6-1.9l-1.5-1c-0.5,0.7-1.1,1.2-2.1,1.2c-0.9,0-1.6-0.4-2.1-1.3l5.7-2.3
	L-311.7,280.3z M-317.5,281.7c0-1.6,1.3-2.5,2.2-2.5c0.7,0,1.4,0.4,1.6,0.9L-317.5,281.7z M-322.2,285.9h1.9v-12.5h-1.9V285.9z
	 M-325.3,278.6L-325.3,278.6c-0.5-0.5-1.3-0.9-2.3-0.9c-2.1,0-4.1,1.9-4.1,4.2c0,2.4,2,4.2,4.1,4.2c1,0,1.8-0.4,2.2-1h0.1v0.6
	c0,1.6-0.9,2.5-2.3,2.5c-1.1,0-1.9-0.8-2.1-1.5l-1.6,0.7c0.5,1.1,1.7,2.5,3.8,2.5c2.2,0,4.1-1.3,4.1-4.4v-7.7h-1.8v0.7H-325.3z
	 M-327.5,284.5c-1.3,0-2.4-1.1-2.4-2.5c0-1.5,1.1-2.6,2.4-2.6s2.3,1.1,2.3,2.6C-325.2,283.4-326.2,284.5-327.5,284.5z M-302.8,273.4
	h-4.5v12.5h1.9v-4.7h2.6c2.1,0,4.1-1.5,4.1-3.8C-298.7,274.9-300.8,273.4-302.8,273.4z M-302.8,279.4h-2.7v-4.2h2.7
	c1.4,0,2.2,1.1,2.2,2.1C-300.6,278.2-301.4,279.4-302.8,279.4z M-291.2,277.6c-1.4,0-2.8,0.6-3.3,1.9l1.7,0.7c0.4-0.7,1-0.9,1.7-0.9
	c1,0,2,0.6,2,1.6v0.1c-0.3-0.2-1.1-0.5-2-0.5c-1.8,0-3.6,1-3.6,2.8c0,1.7,1.5,2.7,3.1,2.7c1.3,0,2-0.6,2.4-1.2h0.1v1h1.8V281
	C-287.3,278.8-289,277.6-291.2,277.6z M-291.4,284.5c-0.6,0-1.5-0.3-1.5-1c0-1,1.1-1.3,2-1.3c0.8,0,1.2,0.2,1.7,0.4
	C-289.3,283.7-290.3,284.5-291.4,284.5z M-280.7,277.9l-2.1,5.4h-0.1l-2.2-5.4h-2l3.3,7.6l-1.9,4.2h2l5.1-11.8H-280.7z
	 M-297.7,285.9h1.9v-12.5h-1.9V285.9z"/>
<g id="g48">
	<path id="path64" inkscape:connector-curvature="0" class="st4" d="M-395.1,263.5c-0.3,0.3-0.5,0.8-0.5,1.4V287
		c0,0.6,0.2,1.1,0.5,1.4l0.1,0.1l12.5-12.4v-0.3L-395.1,263.5L-395.1,263.5z"/>
</g>
<g id="g66">
	<path id="path78" inkscape:connector-curvature="0" class="st5" d="M-378.4,280.1l-4.1-4.1v-0.3l4.1-4.1l0.1,0.1l4.9,2.8
		c1.4,0.8,1.4,2.1,0,2.9L-378.4,280.1L-378.4,280.1z"/>
</g>
<g id="g80">
	<path id="path88" inkscape:connector-curvature="0" class="st6" d="M-378.3,280.1l-4.2-4.2l-12.6,12.5c0.5,0.5,1.2,0.5,2.1,0.1
		L-378.3,280.1"/>
</g>
<g id="g90">
	<path id="path104" inkscape:connector-curvature="0" class="st7" d="M-378.3,271.7l-14.7-8.3c-0.9-0.5-1.6-0.4-2.1,0.1l12.6,12.4
		L-378.3,271.7z"/>
</g>
<g>
	<path class="st3" d="M-363.7,263.7l-1-0.2c0.2-0.8,0.8-1.2,1.8-1.2c0.6,0,1,0.1,1.3,0.4c0.3,0.3,0.5,0.6,0.5,0.9
		c0,0.2-0.1,0.5-0.2,0.7c-0.1,0.2-0.3,0.4-0.6,0.5c0.3,0.1,0.6,0.3,0.8,0.5c0.2,0.2,0.3,0.5,0.3,0.8c0,0.4-0.2,0.8-0.5,1.1
		c-0.3,0.3-0.8,0.4-1.5,0.4c-0.5,0-0.9-0.1-1.2-0.3c-0.3-0.2-0.5-0.5-0.7-1l0.9-0.3c0.1,0.3,0.2,0.5,0.4,0.6
		c0.2,0.1,0.4,0.1,0.6,0.1c0.3,0,0.6-0.1,0.7-0.2c0.1-0.1,0.2-0.3,0.2-0.5c0-0.2-0.1-0.4-0.2-0.5c-0.1-0.1-0.4-0.2-0.8-0.2h-0.2
		v-0.8h0.1c0.3,0,0.5-0.1,0.7-0.2c0.2-0.1,0.2-0.3,0.2-0.6c0-0.2-0.1-0.3-0.2-0.5c-0.1-0.2-0.3-0.2-0.6-0.2
		C-363.3,263.1-363.6,263.3-363.7,263.7z"/>
	<path class="st3" d="M-355.4,267.3h-1.1l-0.4-1.1h-2l-0.4,1.1h-1.1l2-5h1.1L-355.4,267.3z M-357.2,265.4l-0.7-1.9l-0.7,1.9H-357.2z
		"/>
	<path class="st3" d="M-354.8,262.3h3.4v0.8h-2.4v4.2h-1V262.3z"/>
	<path class="st3" d="M-350.8,267.3v-5h1.6c0.6,0,1,0,1.2,0.1c0.3,0.1,0.5,0.2,0.7,0.5c0.2,0.3,0.3,0.6,0.3,1c0,0.3-0.1,0.6-0.2,0.8
		s-0.3,0.4-0.4,0.5c-0.2,0.1-0.3,0.2-0.5,0.2c-0.2,0-0.6,0.1-1.1,0.1h-0.7v1.9h-0.9V267.3z M-349.8,263.2v1.4h0.6
		c0.4,0,0.7,0,0.8-0.1c0.1-0.1,0.2-0.1,0.3-0.2s0.1-0.2,0.1-0.4c0-0.2-0.1-0.3-0.2-0.5c-0.1-0.1-0.2-0.2-0.4-0.2c-0.1,0-0.4,0-0.7,0
		L-349.8,263.2L-349.8,263.2z"/>
	<path class="st3" d="M-346.7,262.3h1.1l1.2,2.6l1-2.6h1.1l-1.7,3.8c-0.2,0.4-0.4,0.7-0.6,0.9c-0.2,0.2-0.4,0.3-0.7,0.3
		c-0.3,0-0.5,0-0.7-0.1v-0.8c0.1,0,0.3,0,0.4,0c0.2,0,0.4,0,0.5-0.1s0.2-0.3,0.3-0.6L-346.7,262.3z"/>
	<path class="st3" d="M-341,263.7l-1-0.2c0.2-0.8,0.8-1.2,1.8-1.2c0.6,0,1,0.1,1.3,0.4c0.3,0.3,0.5,0.6,0.5,0.9
		c0,0.2-0.1,0.5-0.2,0.7c-0.1,0.2-0.3,0.4-0.6,0.5c0.3,0.1,0.6,0.3,0.8,0.5c0.2,0.2,0.3,0.5,0.3,0.8c0,0.4-0.2,0.8-0.5,1.1
		c-0.3,0.3-0.8,0.4-1.5,0.4c-0.5,0-0.9-0.1-1.2-0.3c-0.3-0.2-0.5-0.5-0.7-1l0.9-0.3c0.1,0.3,0.2,0.5,0.4,0.6
		c0.2,0.1,0.4,0.1,0.6,0.1c0.3,0,0.6-0.1,0.7-0.2c0.1-0.1,0.2-0.3,0.2-0.5c0-0.2-0.1-0.4-0.2-0.5c-0.1-0.1-0.4-0.2-0.8-0.2h-0.2
		v-0.8h0.1c0.3,0,0.5-0.1,0.7-0.2s0.2-0.3,0.2-0.6c0-0.2-0.1-0.3-0.2-0.5c-0.1-0.2-0.3-0.2-0.6-0.2
		C-340.6,263.1-340.9,263.3-341,263.7z"/>
	<path class="st3" d="M-337.3,262.3h1v3.4l2-3.4h1v5h-1V264l-2,3.3h-1V262.3z"/>
	<path class="st3" d="M-331.2,267.3v-4.2h-1.5v-0.9h4v0.9h-1.5v4.2H-331.2z"/>
	<path class="st3" d="M-327.9,267.3v-5h3.7v0.9h-2.7v1.1h2.5v0.8h-2.5v1.4h2.8v0.8L-327.9,267.3L-327.9,267.3z"/>
	<path class="st3" d="M-321.2,267.3v-5h1v2h2v-2h1v5h-1v-2.2h-2v2.2H-321.2z"/>
	<path class="st3" d="M-311.5,267.3h-1.1l-0.4-1.1h-2l-0.4,1.1h-1.1l2-5h1.1L-311.5,267.3z M-313.4,265.4l-0.7-1.9l-0.7,1.9H-313.4z
		"/>
</g>
</svg>
